<?xml version="1.0" encoding="UTF-8"?> <!-- Generator: Adobe Illustrator 21.0.0, SVG Export Plug-In . SVG Version: 6.00 Build 0) --> <svg xmlns="http://www.w3.org/2000/svg" xmlns:xlink="http://www.w3.org/1999/xlink" version="1.1" id="Layer_1" x="0px" y="0px" viewBox="0 0 150 150" style="enable-background:new 0 0 150 150;" xml:space="preserve"> <style type="text/css"> .st0{fill:#FFFFFF;} .st1{fill:none;stroke:#80BB41;stroke-width:5;} .st2{fill:#80BB41;} </style> <title>Construction</title> <g id="Asset-Library"> <g id="Icons" transform="translate(-987.000000, 3.000000)"> <g id="Construction" transform="translate(987.000000, 0.000000)"> <g id="Building_White" transform="translate(90.000000, 0.000000)"> <path id="Fill-1" class="st0" d="M-15,142.1c38.7,0,70.1-31.4,70.1-70.1S23.7,1.9-15,1.9S-85.1,33.3-85.1,72 S-53.7,142.1-15,142.1"></path> <path id="Stroke-3" class="st1" d="M-15,142.1c38.7,0,70.1-31.4,70.1-70.1S23.7,1.9-15,1.9S-85.1,33.3-85.1,72 S-53.7,142.1-15,142.1z"></path> <path id="Fill-5" class="st2" d="M34.4,57.1L23.6,39.4c-0.3-0.5-0.8-0.8-1.4-0.9c-0.6-0.1-1.2,0.1-1.6,0.4L-8,63.2l-10.3-10.1 c0.7-2.5,0.8-5.3,0.1-7.9c5.1-4.3,11.7-8.1,15.7-6.6c0.9,0.3,1.9,0,2.4-0.8C0.4,37,0.3,36-0.4,35.3c-0.2-0.2-15.5-14.9-30.9-0.6 c-4.3-0.3-8.4,1.2-11.5,4.1c-3,3-4.5,7-4.2,11.2c-3.1,2.9-5.4,3.7-6.4,4c-2.8-2-6.6-1.8-9.1,0.7c-1.3,1.3-2.1,3.1-2.1,4.9 s0.7,3.6,2.1,5l14.4,14.1c1.4,1.4,3.2,2,5,2c1.8,0,3.6-0.7,5-2c1.3-1.3,2.1-3.1,2.1-5c0-1.5-0.5-2.9-1.4-4.1 c0.3-1,1.2-3.2,4.1-6.2c1.8,0.1,3.5-0.1,5.1-0.5l9.6,9.4l-13.4,11.4c-2-1.3-7.7-3.2-17.6,6.5c-1.1,1.1-2.7,2.8-2.7,5 c0,2.3,1.7,4,3.9,6.1c2.6,2.6,5.8,2.1,8,0.8l10.3,10.1c-0.6,0.9-1.1,2.2-1.1,3.6c0,1.6,0.7,3.1,1.9,4.3c2,1.9,3.9,3.8,6.2,3.8 c1.5,0,3.1-0.7,5-2.6c5.1-5,7.7-9.5,7.7-13.5c0-1.7-0.5-2.9-0.9-3.7l2.3-2.2c0.4-0.4,0.6-0.9,0.6-1.4v-5.1h5.2c1.1,0,2-0.9,2-2 v-4l14.3,14c1.4,1.4,3.2,2,5,2s3.6-0.7,5-2c1.3-1.3,2.1-3.1,2.1-5s-0.7-3.6-2.1-5L10.5,81.3h0.6c1.1,0,2-0.9,2-2v-5.1h5.2 c1.1,0,2-0.9,2-2v-5.1h5.2c1.1,0,2-0.9,2-2v-5.1h5.2c0.7,0,1.4-0.4,1.7-1S34.8,57.7,34.4,57.1L34.4,57.1z M-41,75.9 c-1.2,1.2-3.2,1.2-4.4,0l-14.4-14.1c-0.6-0.6-0.9-1.3-0.9-2.1c0-0.8,0.3-1.5,0.9-2.1c0.6-0.6,1.4-0.9,2.2-0.9 c0.8,0,1.6,0.3,2.2,0.9L-41,71.7c0.6,0.6,0.9,1.3,0.9,2.1C-40.1,74.6-40.4,75.3-41,75.9L-41,75.9z M-34,59.4 c-0.7-0.1-1.4,0.2-1.9,0.8c-2.5,2.5-3.9,4.7-4.7,6.3l-9.7-9.5c1.7-0.8,3.8-2.1,6.3-4.5c0.1,0,0.1-0.1,0.1-0.1 c0.6-0.4,0.9-1.2,0.8-1.9c-0.5-3.3,0.6-6.6,3-8.9c2.4-2.4,5.7-3.4,9.2-2.9c0.7,0.1,1.5-0.2,1.9-0.8c8.1-7.7,16.1-5.7,21-3.1 c-5.6,1.5-11.2,5.9-13.9,8.3c-0.6,0.6-0.8,1.4-0.5,2.2c1,2.5,0.9,5.2,0,7.5c-1.2,2.8-3.3,4.8-6.1,6 C-30.2,59.5-32.1,59.7-34,59.4L-34,59.4z M-24.4,61.2c0.8-0.5,1.6-1.2,2.4-1.9c0.7-0.7,1.4-1.6,2-2.4l9.1,8.9l-4.7,4L-24.4,61.2 z M-20.9,118.5c-2.2,2.2-2.3,2-5.6-1.2c-0.6-0.6-0.7-1.1-0.7-1.5c0-1,0.8-2.1,1.1-2.4c0.4-0.4,0.6-0.9,0.6-1.4 c0-0.5-0.2-1-0.6-1.4l-12.8-12.6c-0.4-0.4-0.9-0.6-1.4-0.6c-0.5,0-1,0.2-1.4,0.6c-0.2,0.2-2.3,2.1-4,0.4 c-1.4-1.3-2.7-2.6-2.7-3.3c0-0.2,0.1-0.8,1.5-2.1c9-8.8,12.8-5.9,12.8-5.9l0.6,0.6l0,0l18,17.7c0,0,0,0,0,0l0.5,0.5 C-14.9,106-11.9,109.7-20.9,118.5L-20.9,118.5z M21.1,98.5c0,0.8-0.3,1.5-0.9,2.1c-1.2,1.2-3.2,1.2-4.4,0L3.3,88.3h0.6 c1.1,0,2-0.9,2-2v-4l14.3,14C20.8,97,21.1,97.7,21.1,98.5L21.1,98.5z M25.5,56.1c-1.1,0-2,0.9-2,2v5.1h-5.2c-1.1,0-2,0.9-2,2 v5.1h-5.2c-1.1,0-2,0.9-2,2v5.1H5.6H3.9c-1.1,0-2,0.9-2,2v5.1h-3.5h-1.7c-1.1,0-2,0.9-2,2v5.1h-5.2c-1.1,0-2,0.9-2,2v6.2 l-1.6,1.6l-15.1-14.8L-14.5,74l0,0l7.7-6.6v0l28.2-23.9l7.7,12.6H25.5z"></path> <path id="Fill-7" class="st2" d="M-32.5,93.7c-0.8-0.8-2-0.8-2.8,0c-0.8,0.8-0.8,2,0,2.8l10.8,10.6c0.4,0.4,0.9,0.6,1.4,0.6 c0.5,0,1-0.2,1.4-0.6c0.8-0.8,0.8-2,0-2.8L-32.5,93.7z"></path> </g> </g> </g> </g> </svg> 